<?xml version="1.0" standalone="no"?>
<!DOCTYPE svg PUBLIC "-//W3C//DTD SVG 20010904//EN"
 "http://www.w3.org/TR/2001/REC-SVG-20010904/DTD/svg10.dtd">
<svg version="1.0" xmlns="http://www.w3.org/2000/svg"
 width="500.000000pt" height="500.000000pt" viewBox="0 0 500.000000 500.000000"
 preserveAspectRatio="xMidYMid meet">

<g transform="translate(0.000000,500.000000) scale(0.100000,-0.100000)"
fill="#000000" stroke="none">
<path d="M760 2500 l0 -480 1740 0 1740 0 0 480 0 480 -1740 0 -1740 0 0 -480z
m3450 0 l0 -450 -1715 0 -1715 0 0 450 0 450 1715 0 1715 0 0 -450z"/>
<path d="M850 2500 l0 -390 825 0 825 0 0 390 0 390 -825 0 -825 0 0 -390z
m428 128 c-3 -7 -23 -14 -46 -16 l-42 -3 0 -115 c0 -107 -1 -114 -20 -114 -19
0 -20 7 -20 115 l0 115 -40 0 c-29 0 -40 4 -40 15 0 12 18 15 106 15 80 0 105
-3 102 -12z m112 -118 c0 -109 -2 -130 -15 -130 -13 0 -15 21 -15 130 0 109 2
130 15 130 13 0 15 -21 15 -130z m290 115 c0 -11 -12 -15 -45 -15 l-45 0 0
-115 c0 -96 -3 -115 -15 -115 -12 0 -15 19 -15 115 l0 115 -45 0 c-33 0 -45 4
-45 15 0 12 18 15 105 15 87 0 105 -3 105 -15z m234 -102 c27 -65 51 -124 53
-130 11 -27 -27 -11 -42 17 -15 28 -19 30 -78 30 -60 0 -63 -1 -74 -30 -6 -17
-19 -30 -28 -30 -20 0 -23 -10 42 148 32 80 51 112 62 112 12 0 31 -34 65
-117z m233 20 l68 -98 3 98 c2 77 6 97 17 97 12 0 15 -23 15 -130 0 -103 -3
-130 -14 -130 -7 0 -45 46 -85 101 l-71 102 0 -102 c0 -83 -3 -101 -15 -101
-13 0 -15 21 -15 130 0 107 3 130 15 130 7 0 45 -44 82 -97z"/>
<path d="M1821 2528 c-12 -28 -19 -53 -17 -55 2 -2 24 -3 49 -1 l44 3 -20 53
c-11 28 -23 52 -27 52 -4 0 -17 -23 -29 -52z"/>
<path d="M2740 2643 c-31 -11 -60 -47 -60 -74 0 -38 28 -67 80 -82 28 -8 46
-19 48 -30 5 -24 -25 -33 -47 -13 -22 20 -81 22 -81 2 0 -26 35 -57 73 -66 74
-16 137 21 137 81 0 33 -25 56 -86 78 -28 10 -49 23 -49 31 0 21 44 25 51 6 4
-11 19 -16 45 -16 38 0 38 0 28 29 -16 45 -88 73 -139 54z"/>
<path d="M3015 2643 c-58 -15 -95 -66 -95 -132 0 -84 52 -133 141 -133 87 0
143 59 136 145 -8 88 -91 143 -182 120z m93 -90 c27 -37 5 -101 -36 -104 -33
-3 -47 2 -64 23 -25 28 -22 55 8 84 19 20 31 24 52 19 15 -3 33 -13 40 -22z"/>
<path d="M3240 2550 c0 -134 25 -172 115 -172 90 0 115 38 115 172 l0 90 -40
0 -39 0 -3 -92 -3 -93 -30 0 -30 0 -3 93 -3 92 -39 0 -40 0 0 -90z"/>
<path d="M3520 2510 l0 -130 40 0 39 0 3 62 3 63 45 -62 c39 -54 49 -62 78
-63 l32 0 0 130 0 130 -40 0 -39 0 -3 -61 -3 -61 -44 61 c-39 54 -48 61 -78
61 l-33 0 0 -130z"/>
<path d="M3820 2510 l0 -130 71 0 c110 0 159 32 174 112 9 47 -16 103 -57 128
-26 15 -50 20 -110 20 l-78 0 0 -130z m152 43 c40 -36 9 -103 -48 -103 l-34 0
0 60 0 60 32 0 c17 0 40 -7 50 -17z"/>
</g>
</svg>
